<?xml version="1.0"?>
<svg xmlns="http://www.w3.org/2000/svg" xmlns:xlink="http://www.w3.org/1999/xlink" version="1.1" id="Capa_1" x="0px" y="0px" viewBox="0 0 512 512" style="enable-background:new 0 0 512 512;" xml:space="preserve" width="512px" height="512px" class=""><g><g>
	<g>
		<path d="M407.923,62.929C367.342,22.348,313.389,0,256,0c-57.389,0-111.342,22.348-151.922,62.928    c-40.58,40.58-62.928,94.534-62.928,151.922s22.348,111.343,62.928,151.922c29.404,29.404,65.832,49.226,105.498,57.92V512h30    v-82.917c5.438,0.408,10.915,0.619,16.424,0.619c5.51,0,10.987-0.21,16.424-0.619V512h30v-87.307    c39.666-8.693,76.094-28.516,105.498-57.92c40.58-40.58,62.929-94.534,62.929-151.922    C470.851,157.462,448.503,103.509,407.923,62.929z M256,399.702c-101.927,0-184.851-82.924-184.851-184.851S154.073,30,256,30    s184.851,82.924,184.851,184.851S357.927,399.702,256,399.702z" data-original="#000000" class="active-path" data-old_color="#000000" fill="#817F96"/>
	</g>
</g><g>
	<g>
		<path d="M281.468,77.689h-85.712v264.645h30V226.977h55.712c41.159,0,74.644-33.485,74.644-74.644S322.626,77.689,281.468,77.689z     M281.468,196.977h-55.712v-89.288h55.712c24.617,0,44.644,20.027,44.644,44.644S306.085,196.977,281.468,196.977z" data-original="#000000" class="active-path" data-old_color="#000000" fill="#817F96"/>
	</g>
</g></g> </svg>
